<svg width="18" height="18" viewBox="0 0 18 18" fill="none" xmlns="http://www.w3.org/2000/svg">
<path d="M16 2.5H2C1.46957 2.5 0.960859 2.71071 0.585786 3.08579C0.210714 3.46086 0 3.96957 0 4.5L0 13.5C0 14.0304 0.210714 14.5391 0.585786 14.9142C0.960859 15.2893 1.46957 15.5 2 15.5H16C16.5304 15.5 17.0391 15.2893 17.4142 14.9142C17.7893 14.5391 18 14.0304 18 13.5V4.5C18 3.96957 17.7893 3.46086 17.4142 3.08579C17.0391 2.71071 16.5304 2.5 16 2.5Z" fill="#006C35"/>
<path d="M4.4595 7.025C4.7755 7.055 4.601 6.4905 4.7155 6.388C4.737 6.3375 4.777 6.337 4.78 6.401V6.88C4.777 7.036 4.8795 7.0815 4.959 7.114C5.042 7.1075 5.097 7.1105 5.1295 7.191L5.1685 8.02C5.1685 8.02 5.3605 8.075 5.3695 7.5535C5.379 7.2475 5.3085 6.9915 5.35 6.932C5.3515 6.8735 5.426 6.87 5.478 6.8985C5.5605 6.9565 5.5975 7.0285 5.7255 7C5.921 6.9465 6.038 6.8515 6.041 6.7015C6.0295 6.559 6.0135 6.4165 5.952 6.274C5.9605 6.248 5.9145 6.181 5.923 6.155C5.958 6.21 6.0115 6.2055 6.0235 6.155C5.9905 6.0455 5.939 5.9405 5.855 5.895C5.786 5.834 5.685 5.8465 5.648 5.9735C5.631 6.1195 5.701 6.2935 5.807 6.435C5.8295 6.4905 5.8615 6.5825 5.8475 6.6655C5.791 6.6975 5.734 6.6845 5.687 6.6345C5.687 6.6345 5.5315 6.518 5.5315 6.492C5.573 6.228 5.541 6.198 5.518 6.125C5.502 6.024 5.454 5.9915 5.415 5.9225C5.376 5.8815 5.3235 5.8815 5.2985 5.9225C5.2295 6.0415 5.2615 6.2975 5.3115 6.412C5.347 6.517 5.402 6.5835 5.376 6.5835C5.3545 6.643 5.3105 6.629 5.2785 6.5605C5.2325 6.4185 5.2235 6.207 5.2235 6.1115C5.2095 5.9935 5.1945 5.741 5.117 5.677C5.0695 5.6125 4.999 5.6435 4.9745 5.703C4.9695 5.82 4.9685 5.9375 4.982 6.046C5.035 6.2355 5.052 6.4025 5.078 6.597C5.085 6.8575 4.9275 6.71 4.9345 6.581C4.971 6.4135 4.9615 6.1495 4.929 6.0825C4.9035 6.016 4.873 5.999 4.811 6.01C4.762 6.006 4.635 6.145 4.599 6.375C4.599 6.375 4.5685 6.4935 4.5555 6.599C4.538 6.718 4.46 6.802 4.405 6.5825C4.3575 6.423 4.3285 6.0295 4.249 6.1215C4.226 6.429 4.1985 6.97 4.4595 7.025Z" fill="white"/>
<path d="M4.935 7.2495C4.675 7.2545 4.2945 7.591 4.284 7.7775C4.558 7.6455 4.8275 7.5185 5.1065 7.3825C5.0615 7.315 5.104 7.2545 4.935 7.2495Z" fill="white"/>
<path d="M6.3685 8.258C6.489 7.8565 6.349 7.5605 6.4145 7.562C6.553 7.7115 6.747 7.582 6.7895 7.53C6.808 7.504 6.8535 7.487 6.8855 7.521C6.994 7.599 7.185 7.562 7.2245 7.425C7.24952 7.28741 7.26489 7.14824 7.2705 7.0085C7.182 7.036 7.116 7.0545 7.11 7.091L7.0915 7.21C7.084 7.2485 7.0075 7.25 7.0045 7.201C6.971 7.0485 6.832 7.0285 6.748 7.265C6.6915 7.311 6.5895 7.32 6.5785 7.2515C6.592 7.093 6.528 7.0715 6.4 7.146C6.359 6.8315 6.3175 6.531 6.2765 6.2165C6.33 6.215 6.379 6.2545 6.4275 6.1935C6.374 6.027 6.261 5.687 6.1985 5.6625C6.168 5.6255 6.142 5.6485 6.1025 5.658C6.0355 5.6795 5.973 5.7375 5.9925 5.85C6.072 6.3325 6.124 6.7 6.203 7.1825C6.215 7.239 6.168 7.3135 6.107 7.306C6.0035 7.236 5.9775 7.094 5.8005 7.1C5.672 7.1015 5.5255 7.2405 5.5075 7.375C5.486 7.4815 5.4785 7.5975 5.5075 7.691C5.5975 7.799 5.706 7.7885 5.8005 7.764C5.878 7.732 5.9425 7.654 5.9695 7.6725C5.988 7.695 5.974 7.9515 5.6035 8.1485C5.379 8.249 5.2005 8.272 5.1045 8.089C5.045 7.9745 5.109 7.5395 4.9625 7.6405C4.529 8.758 5.9775 8.913 6.1395 7.6865C6.155 7.636 6.216 7.5855 6.2265 7.668C6.193 8.779 5.106 8.8555 4.9215 8.506C4.8755 8.4235 4.862 8.2405 4.8575 8.1305C4.83 7.912 4.7155 7.996 4.6975 8.2125C4.679 8.333 4.684 8.367 4.684 8.4825C4.7415 9.36 6.1415 8.983 6.3685 8.258ZM5.8285 7.499C5.8195 7.516 5.78 7.509 5.751 7.509C5.718 7.5075 5.7025 7.502 5.6825 7.4755C5.6735 7.4455 5.7015 7.417 5.714 7.3945C5.7295 7.368 5.813 7.3405 5.8425 7.4145C5.84785 7.42856 5.84938 7.4438 5.84692 7.45864C5.84446 7.47349 5.8381 7.48742 5.8285 7.499Z" fill="white"/>
<path d="M6.801 6.5045C6.888 6.4725 7.3005 6.001 7.3005 6.001C7.279 5.9825 7.26 5.969 7.2385 5.9505C7.2155 5.9305 7.218 5.9105 7.2385 5.891C7.3405 5.8315 7.308 5.701 7.2545 5.6415C7.21984 5.62471 7.18178 5.61616 7.14327 5.61651C7.10476 5.61685 7.06685 5.62609 7.0325 5.6435C6.961 5.712 6.944 5.822 7.0005 5.891C7.0555 5.917 7.1105 5.9725 7.074 6.003C6.9055 6.183 6.4435 6.4935 6.497 6.5045C6.5085 6.5195 6.792 6.519 6.801 6.5045ZM7.1065 5.764C7.133 5.7575 7.167 5.781 7.183 5.816C7.199 5.851 7.1905 5.8845 7.1645 5.891H7.1635C7.1375 5.8975 7.1035 5.874 7.0875 5.839C7.072 5.8035 7.0805 5.7705 7.1065 5.764ZM4.431 8.629C4.363 8.7675 4.3345 8.6725 4.3285 8.595C4.32088 8.46484 4.32741 8.33424 4.348 8.2055C4.365 8.0955 4.348 8.129 4.313 8.1735C4.1585 8.4195 4.145 8.7875 4.2305 8.897C4.2755 8.949 4.35 8.972 4.4055 8.955C4.5025 8.913 4.545 8.716 4.522 8.6445C4.489 8.594 4.4635 8.586 4.431 8.629ZM9.5215 6.025C9.6995 6.264 9.8685 6.5075 10.034 6.7555C10.0667 6.96983 10.09 7.181 10.104 7.389C10.1315 7.791 10.1395 8.226 10.1145 8.6495C10.1895 8.6525 10.311 8.5275 10.353 8.345C10.3805 8.0925 10.343 7.643 10.3405 7.494C10.3372 7.40061 10.3327 7.30727 10.327 7.214C10.524 7.536 10.716 7.873 10.9035 8.2475C10.972 8.2155 10.957 7.8325 10.917 7.7785C10.767 7.457 10.5605 7.139 10.4945 7.017C10.47 6.972 10.3865 6.844 10.287 6.6975C10.2781 6.58061 10.2641 6.46416 10.245 6.3485C10.214 6.1345 10.3335 6.372 10.317 6.2475C10.2785 6.0335 10.1595 5.889 10.0205 5.693C9.9755 5.6295 9.977 5.6165 9.9075 5.7085C9.88342 5.76377 9.87214 5.82376 9.8745 5.884C9.85253 5.85228 9.82935 5.82143 9.805 5.7915L9.5775 5.5975C9.527 5.5615 9.404 5.4965 9.382 5.6045C9.37231 5.68022 9.37603 5.75707 9.393 5.8315C9.406 5.885 9.4835 5.974 9.5215 6.025ZM9.8915 6.013C9.901 6.0545 9.911 6.096 9.9175 6.1385L9.925 6.179C9.90395 6.14975 9.88211 6.12107 9.8595 6.093C9.7775 5.996 9.8455 6.017 9.8915 6.013Z" fill="white"/>
<path d="M10.9595 8.3465C10.7855 8.528 10.5345 8.7515 10.2615 8.855C10.232 8.888 10.3345 9.0295 10.4665 9.0295C10.688 9.0035 10.883 8.879 11.0635 8.5515C11.112 8.4755 11.197 8.312 11.199 8.185C11.2155 7.442 11.162 6.8635 11.0505 6.3265C11.043 6.28341 11.0451 6.23921 11.0565 6.197C11.0705 6.18 11.1195 6.197 11.1455 6.155C11.183 6.116 11.045 5.796 10.966 5.673C10.938 5.618 10.9285 5.581 10.882 5.6795C10.833 5.7595 10.8005 5.899 10.8045 6.029C10.91 6.7605 10.9425 7.401 11.0115 8.1325C11.017 8.203 11.0065 8.306 10.9595 8.3465ZM13.8745 6.4915C13.867 6.4395 13.844 6.3185 13.853 6.303C13.867 6.266 13.9395 6.307 13.9655 6.2645C14.0035 6.226 13.7785 5.937 13.7 5.814C13.6715 5.759 13.662 5.722 13.6155 5.8205C13.5665 5.9005 13.5495 6.044 13.569 6.17C13.6865 6.9645 13.774 7.5615 13.792 8.266C13.7815 8.333 13.7795 8.369 13.748 8.453C13.6785 8.542 13.602 8.653 13.5295 8.707C13.4575 8.7605 13.304 8.812 13.2535 8.8515C13.095 8.944 13.0945 9.0495 13.2235 9.053C13.4445 9.027 13.7065 9.009 13.887 8.736C13.9355 8.66 13.993 8.4535 13.9955 8.3265C14.012 7.5835 13.986 7.0285 13.8745 6.4915ZM12.199 7.11C12.201 7.008 12.2105 6.873 12.216 6.7885C12.2185 6.757 12.226 6.7215 12.256 6.7135C12.2865 6.7055 12.3405 6.7445 12.341 6.7115C12.335 6.647 12.322 6.551 12.2855 6.5055C12.2355 6.4315 12.103 6.4495 12.0795 6.5655C12.08 6.6085 12.0995 6.6315 12.096 6.6705C12.09 6.6925 12.067 6.7075 12.0125 6.6815C12.0215 6.6735 11.977 6.612 11.977 6.612C11.9345 6.586 11.8775 6.6135 11.841 6.637C11.8279 6.66226 11.8201 6.68991 11.8181 6.71827C11.816 6.74663 11.8197 6.77512 11.829 6.802C11.889 6.9155 12.0985 7.108 12.199 7.11Z" fill="white"/>
<path d="M12.1285 6.2405L12.575 6.787C12.6075 7.2 12.616 7.538 12.648 7.951C12.6435 8.126 12.5895 8.2785 12.538 8.3005C12.538 8.3005 12.4605 8.3455 12.4085 8.296C12.3705 8.2805 12.219 8.0435 12.219 8.0435C12.1415 7.9725 12.0905 7.9925 12.0355 8.0435C11.8835 8.19 11.815 8.465 11.712 8.654C11.685 8.6965 11.61 8.7325 11.5265 8.651C11.315 8.3615 11.439 7.95 11.413 8.056C11.2245 8.2685 11.3075 8.62 11.35 8.696C11.412 8.82 11.4625 8.9 11.5835 8.9615C11.6935 9.0425 11.7795 8.9915 11.8265 8.935C11.9375 8.8195 11.939 8.527 11.991 8.468C12.027 8.3615 12.1195 8.3795 12.164 8.427C12.2051 8.4842 12.259 8.53095 12.3215 8.5635C12.425 8.655 12.5485 8.6715 12.67 8.588C12.753 8.5415 12.8075 8.481 12.856 8.3615C12.91 8.2175 12.8805 7.5555 12.8695 7.1585C12.947 7.2585 13.0225 7.363 13.099 7.4675C13.1325 7.799 13.1515 8.129 13.1405 8.466C13.1325 8.5335 13.3755 8.266 13.3735 8.139V7.856C13.4905 8.032 13.6045 8.2135 13.7115 8.4055C13.7785 8.3705 13.7565 7.993 13.714 7.941C13.5905 7.734 13.426 7.5185 13.3125 7.3645C13.305 7.345 13.301 7.323 13.292 7.3045C13.2465 7.199 13.275 7.114 13.2535 7.002C13.2325 6.8895 13.238 6.7215 13.2055 6.588C13.1965 6.536 13.1695 6.369 13.1775 6.3535C13.1905 6.316 13.2405 6.3545 13.265 6.3115C13.3015 6.2715 13.1385 5.849 13.0555 5.728C13.0255 5.674 12.9715 5.6925 12.9045 5.7805C12.843 5.8385 12.866 5.9705 12.8895 6.096C12.948 6.4 12.997 6.6915 13.039 6.98C12.9491 6.86047 12.8583 6.74163 12.7665 6.6235L12.7625 6.6015C12.7625 6.596 12.749 6.3395 12.737 6.2785C12.735 6.254 12.729 6.2465 12.755 6.2495C12.7825 6.2725 12.786 6.274 12.8035 6.282C12.8315 6.287 12.856 6.2395 12.8395 6.196L12.581 5.72C12.5605 5.6995 12.5335 5.6775 12.501 5.7255C12.4807 5.74304 12.4645 5.76478 12.4534 5.78921C12.4424 5.81364 12.4368 5.84019 12.437 5.867C12.445 5.9795 12.4645 6.0945 12.472 6.2075L12.483 6.2685C12.4715 6.255 12.4575 6.238 12.4515 6.232C12.232 6.001 12.5525 6.1945 12.4095 6.016C12.2885 5.883 12.2535 5.8415 12.1495 5.7615C12.0975 5.728 12.066 5.664 12.049 5.773C12.041 5.86861 12.0385 5.9646 12.0415 6.0605C12.0415 6.1065 12.088 6.1905 12.1285 6.2405ZM7.678 6.78C7.804 6.832 7.8845 6.592 7.9365 6.329C7.9715 6.255 7.9985 6.247 8.0165 6.285C8.012 6.635 8.0415 6.7125 8.1315 6.819C8.332 6.974 8.498 6.8385 8.5115 6.8255L8.6675 6.6695C8.702 6.633 8.7485 6.6305 8.7975 6.663C8.8455 6.706 8.839 6.781 8.941 6.833C9.027 6.8675 9.211 6.841 9.2535 6.767C9.311 6.669 9.325 6.635 9.351 6.598C9.392 6.5435 9.462 6.568 9.462 6.585C9.4555 6.6155 9.4145 6.646 9.4425 6.7005C9.4915 6.737 9.5025 6.7135 9.5315 6.7055C9.6335 6.6565 9.7095 6.4355 9.7095 6.4355C9.714 6.353 9.668 6.36 9.638 6.377C9.599 6.4005 9.5965 6.4085 9.5575 6.4325C9.5075 6.44 9.411 6.473 9.3635 6.399C9.3145 6.31 9.3135 6.186 9.2765 6.0965C9.2765 6.09 9.2115 5.955 9.272 5.9465C9.3025 5.952 9.367 5.969 9.3775 5.915C9.409 5.862 9.309 5.711 9.241 5.6345C9.1815 5.5695 9.099 5.5615 9.0195 5.628C8.9635 5.6795 8.9715 5.7365 8.9605 5.791C8.9511 5.82944 8.95095 5.86956 8.96008 5.90807C8.96921 5.94658 8.98734 5.98237 9.013 6.0125C9.0685 6.122 9.17 6.2635 9.1365 6.4615C9.1365 6.4615 9.0775 6.5555 8.974 6.5435C8.931 6.534 8.861 6.5155 8.824 6.2405C8.796 6.032 8.831 5.7405 8.7425 5.604C8.7105 5.5215 8.6875 5.442 8.6095 5.583C8.5885 5.6385 8.4985 5.7225 8.564 5.896C8.6175 6.0055 8.639 6.184 8.615 6.383C8.578 6.4395 8.57 6.4585 8.5215 6.515C8.4535 6.588 8.38 6.5695 8.3235 6.542C8.2705 6.5065 8.2295 6.488 8.2055 6.375C8.21 6.195 8.22 5.9 8.187 5.8375C8.1385 5.7405 8.0585 5.7755 8.024 5.805C7.8595 5.9555 7.7785 6.209 7.729 6.4105C7.6835 6.5575 7.635 6.5155 7.601 6.456C7.518 6.378 7.5125 5.7695 7.412 5.87C7.2505 6.327 7.503 6.829 7.678 6.78Z" fill="white"/>
<path d="M10.0685 7.762L10.0205 7.7345L9.08 7.73C9.0315 7.7115 9.046 7.6955 9.08 7.6825C9.3045 7.652 9.704 7.587 9.7305 7.2035C9.726 7.004 9.6445 6.873 9.3995 6.837C9.22 6.851 9.0915 7.0255 9.112 7.217C9.1035 7.269 9.129 7.37 9.0765 7.3815C8.731 7.413 8.3545 7.629 8.342 7.784C8.321 7.7985 8.274 7.7565 8.28 7.6905C8.26325 7.4082 8.182 7.1335 8.0425 6.8875C7.9335 6.7785 7.9675 6.8145 7.8945 6.866C7.8475 6.92 7.839 6.957 7.8415 7.0645C7.8415 7.0685 7.9295 7.314 8.004 7.486C8.0535 7.6625 8.1 7.864 8.0665 8.0545C7.9505 8.3065 7.717 8.5325 7.492 8.655C7.376 8.6925 7.2765 8.679 7.252 8.653C7.1805 8.605 7.184 8.5165 7.1895 8.515C7.379 8.3825 7.596 8.276 7.766 7.9195C7.816 7.7835 7.831 7.701 7.7815 7.4905C7.7681 7.4162 7.73396 7.34721 7.683 7.2915C7.7135 7.2715 7.801 7.338 7.8145 7.2985C7.78923 7.18325 7.73185 7.07751 7.649 6.9935C7.5815 6.932 7.508 6.925 7.446 6.9815C7.376 7.0205 7.361 7.1595 7.3945 7.2815C7.4315 7.3735 7.532 7.389 7.604 7.5735C7.604 7.5775 7.63 7.7115 7.593 7.764C7.5635 7.856 7.181 8.1565 7.16 8.17C7.1495 8.183 7.154 8.1635 7.1525 8.1135C7.15 8.0525 7.177 7.9085 7.1695 7.9075C7.045 7.988 7.0035 8.2345 6.981 8.3075C6.666 8.525 6.3095 8.687 6.1035 8.908C5.996 9.0755 6.8425 8.7155 6.941 8.672C6.963 8.688 6.9605 8.7635 7.0195 8.831C7.1075 8.95 7.2935 9.0235 7.476 8.978C7.781 8.8675 7.9575 8.6595 8.1365 8.429C8.162 8.3915 8.202 8.363 8.239 8.3915C8.362 8.667 8.7175 8.862 9.176 8.8825C9.2825 8.753 9.231 8.6905 9.188 8.6635C9.188 8.6595 8.9615 8.5735 8.927 8.4875C8.906 8.4095 8.957 8.341 9.059 8.289C9.3535 8.2535 9.643 8.214 9.9235 8.124C9.9265 8.03 9.981 7.889 10.0185 7.828C10.0545 7.766 10.074 7.7845 10.0685 7.762ZM9.295 7.176C9.309 7.1525 9.3555 7.1535 9.399 7.179C9.4425 7.2045 9.467 7.244 9.4525 7.2675C9.4385 7.2915 9.3915 7.29 9.348 7.2645C9.3045 7.239 9.281 7.2 9.295 7.176ZM8.9165 8.126C8.8155 8.1605 8.7185 8.1875 8.7185 8.3335C8.756 8.5365 8.667 8.467 8.6145 8.439C8.5525 8.3945 8.378 8.287 8.353 8.055C8.349 7.9995 8.3925 7.953 8.462 7.953C8.5665 7.9815 8.721 7.9835 8.855 7.9975C8.9645 8.0045 9.019 8.0905 8.9165 8.126ZM5.433 5.8735C5.541 5.9255 5.745 5.9035 5.736 5.7285C5.736 5.713 5.732 5.661 5.7305 5.647C5.7085 5.5955 5.6485 5.608 5.6345 5.6615C5.63 5.679 5.642 5.707 5.6265 5.716C5.6175 5.725 5.583 5.7195 5.5845 5.6715C5.5845 5.656 5.573 5.6395 5.5665 5.63C5.5595 5.6255 5.5555 5.624 5.543 5.624C5.528 5.6245 5.528 5.6285 5.52 5.6415C5.5165 5.654 5.5115 5.667 5.5115 5.6815C5.5095 5.6985 5.503 5.7045 5.4905 5.7075C5.4765 5.7075 5.4795 5.709 5.4685 5.7015C5.4615 5.694 5.453 5.691 5.453 5.6785C5.45277 5.6639 5.45041 5.64942 5.446 5.6355C5.43967 5.62817 5.43083 5.62333 5.4195 5.621C5.3605 5.621 5.3565 5.6885 5.36 5.7145C5.3545 5.719 5.3525 5.84 5.433 5.8735Z" fill="white"/>
<path d="M8.756 7.0135C8.756 6.998 8.7445 6.982 8.738 6.972C8.731 6.9675 8.727 6.966 8.7145 6.966C8.6995 6.9665 8.7 6.9705 8.6915 6.9835C8.688 6.9965 8.683 7.009 8.683 7.0235C8.6815 7.041 8.6745 7.047 8.662 7.0495C8.648 7.0495 8.651 7.051 8.6395 7.044C8.6325 7.0365 8.624 7.0335 8.624 7.021C8.62377 7.0064 8.62141 6.99192 8.617 6.978C8.61067 6.97067 8.60183 6.966 8.5905 6.964C8.5315 6.964 8.5275 7.0315 8.5305 7.057C8.526 7.062 8.5235 7.1825 8.604 7.2165C8.7125 7.268 8.97 7.238 8.907 7.0715C8.90592 7.04412 8.90408 7.01678 8.9015 6.9895C8.8795 6.938 8.819 6.951 8.8055 7.004C8.8015 7.0215 8.8135 7.0495 8.7975 7.0585C8.7895 7.0675 8.7545 7.062 8.756 7.0135ZM10.4545 6.66C10.5625 6.712 10.766 6.69 10.757 6.5155C10.7559 6.48812 10.7541 6.46078 10.7515 6.4335C10.7295 6.382 10.6695 6.395 10.656 6.448C10.6515 6.4655 10.6635 6.4935 10.6475 6.5025C10.6385 6.5115 10.604 6.5065 10.6055 6.458C10.6055 6.4425 10.594 6.426 10.5875 6.4165C10.5805 6.412 10.5765 6.4105 10.5635 6.4105C10.5485 6.4115 10.549 6.415 10.5405 6.428C10.537 6.441 10.532 6.4535 10.532 6.468C10.53 6.4855 10.5235 6.4915 10.511 6.494C10.497 6.494 10.5 6.4955 10.4885 6.4885C10.4815 6.481 10.4735 6.478 10.4735 6.4655C10.4733 6.45073 10.471 6.43608 10.4665 6.422C10.4598 6.41467 10.4508 6.41 10.4395 6.408C10.3805 6.408 10.3765 6.4755 10.38 6.501C10.3765 6.506 10.374 6.6265 10.4545 6.66ZM10.5275 5.984C10.566 6.092 10.498 6.195 10.5385 6.21C10.575 6.227 10.627 6.0985 10.646 5.98C10.6685 5.884 10.6 5.6875 10.503 5.647C10.444 5.633 10.36 5.668 10.387 5.747C10.3735 5.785 10.506 5.914 10.5275 5.984ZM11.525 8.516C11.6005 8.5165 11.6875 8.3435 11.7245 8.172C11.745 7.936 11.7105 7.7925 11.7045 7.6535C11.6985 7.5145 11.548 6.4575 11.517 6.3525C11.4805 6.154 11.6635 6.326 11.6435 6.2105C11.58 6.065 11.4225 5.8535 11.3725 5.727C11.3425 5.673 11.3555 5.625 11.2885 5.713C11.227 5.9155 11.2055 6.0805 11.229 6.2065C11.388 7.0365 11.551 7.7265 11.525 8.516ZM13.403 6.346C13.4205 6.4 13.3765 6.5745 13.413 6.5905C13.4465 6.6085 13.4935 6.47 13.511 6.3415C13.5205 6.271 13.469 6.025 13.3805 5.981C13.3265 5.966 13.25 6.0035 13.275 6.0895C13.2625 6.131 13.3835 6.27 13.403 6.346ZM6.8435 8.174C6.876 8.1875 6.9205 8.0855 6.9375 7.991C6.947 7.939 6.897 7.7585 6.8125 7.726C6.7605 7.715 6.6895 7.729 6.7115 7.806C6.709 7.8475 6.8265 7.8975 6.8335 7.994C6.8505 8.034 6.8085 8.1625 6.8435 8.174ZM4.5655 5.8665C4.582 5.908 4.549 6.0405 4.5835 6.053C4.615 6.067 4.6595 5.961 4.676 5.8635C4.6855 5.8095 4.678 5.6265 4.553 5.589C4.5015 5.5775 4.43 5.606 4.4535 5.6715C4.4415 5.7025 4.547 5.8085 4.5655 5.8665ZM7.0165 6.453C6.921 6.505 6.8835 6.659 6.9435 6.7485C6.999 6.828 7.087 6.7985 7.099 6.7985C7.193 6.81 7.2485 6.6225 7.2485 6.6225C7.2485 6.6225 7.2515 6.57 7.14 6.6695C7.093 6.6785 7.087 6.661 7.0755 6.634C7.06427 6.58506 7.06936 6.53378 7.09 6.488C7.106 6.4415 7.07 6.421 7.0165 6.453ZM7.7375 5.8765C7.75285 5.86691 7.76603 5.85421 7.77619 5.83923C7.78635 5.82425 7.79327 5.80731 7.7965 5.7895C7.811 5.7165 7.719 5.824 7.7075 5.7425C7.687 5.667 7.746 5.636 7.802 5.563C7.804 5.5125 7.803 5.477 7.7345 5.518C7.6865 5.5505 7.5905 5.6495 7.5875 5.7635C7.5845 5.828 7.5725 5.8275 7.615 5.8685C7.6455 5.913 7.676 5.9085 7.7375 5.8765ZM8.387 5.9155C8.449 5.7475 8.449 5.6765 8.4535 5.605C8.4345 5.4965 8.361 5.5 8.3125 5.6205C8.2915 5.666 8.267 5.9055 8.271 5.9055C8.2545 5.977 8.3455 6.0075 8.387 5.9155ZM12.472 7.107C12.472 7.107 11.9705 7.4635 11.9585 7.476C11.9085 7.52 11.9335 7.676 11.9585 7.658C11.994 7.672 12.4985 7.3295 12.4885 7.2895C12.512 7.2905 12.5235 7.089 12.472 7.107ZM12.4105 8.074C12.444 8.092 12.5325 7.9825 12.529 7.846C12.539 7.7755 12.5035 7.517 12.4155 7.473C12.3615 7.458 12.2895 7.504 12.3145 7.5895C12.302 7.6305 12.3765 7.774 12.396 7.85C12.4135 7.9045 12.374 8.058 12.4105 8.074ZM9.5705 8.822C9.5705 8.8265 9.613 8.863 9.663 8.834C9.768 8.7935 9.834 8.7545 9.981 8.722C10.0195 8.7215 10.017 8.618 9.956 8.6145C9.8765 8.6185 9.8025 8.6225 9.723 8.6855C9.674 8.6965 9.666 8.667 9.655 8.64C9.643 8.5735 9.6825 8.5275 9.674 8.478C9.677 8.481 9.6285 8.4365 9.579 8.4615C9.5765 8.4615 9.4685 8.5345 9.434 8.5855C9.4125 8.602 9.415 8.616 9.4215 8.6435C9.438 8.6815 9.4675 8.67 9.5005 8.652C9.5445 8.646 9.5655 8.675 9.562 8.7275C9.541 8.794 9.5705 8.8185 9.5705 8.822ZM12.846 8.905C12.8295 8.9335 12.8185 8.9765 12.8695 8.99C12.9635 9.0165 13.18 8.8755 13.18 8.873C13.215 8.8465 13.2035 8.797 13.2005 8.797C13.18 8.7735 13.134 8.787 13.103 8.7835C13.0885 8.7835 13.0395 8.776 13.063 8.733C13.0795 8.70981 13.0926 8.68439 13.102 8.6575C13.1165 8.625 13.104 8.6035 13.051 8.586C12.9975 8.576 12.976 8.581 12.9165 8.586C12.8845 8.593 12.8735 8.607 12.8675 8.646C12.87 8.705 12.9055 8.702 12.9425 8.7255C12.964 8.753 12.978 8.778 12.941 8.8225C12.906 8.855 12.8815 8.873 12.846 8.905ZM12.75 11.5H12V11.25C12 11.1837 11.9737 11.1201 11.9268 11.0732C11.8799 11.0263 11.8163 11 11.75 11C11.6837 11 11.6201 11.0263 11.5732 11.0732C11.5263 11.1201 11.5 11.1837 11.5 11.25V11.5H5.5C5.5 11.5 5.5 12 7 12H11.5V12.25C11.5 12.3163 11.5263 12.3799 11.5732 12.4268C11.6201 12.4737 11.6837 12.5 11.75 12.5C11.8163 12.5 11.8799 12.4737 11.9268 12.4268C11.9737 12.3799 12 12.3163 12 12.25V12H12.5V12.25C12.5 12.3163 12.5263 12.3799 12.5732 12.4268C12.6201 12.4737 12.6837 12.5 12.75 12.5C12.8163 12.5 12.8799 12.4737 12.9268 12.4268C12.9737 12.3799 13 12.3163 13 12.25V11.75C13 11.6837 12.9737 11.6201 12.9268 11.5732C12.8799 11.5263 12.8163 11.5 12.75 11.5Z" fill="white"/>
</svg>
