<svg width="45" height="45" viewBox="0 0 45 45" fill="none" xmlns="http://www.w3.org/2000/svg">
<g clip-path="url(#clip0_16_151650)">
<g clip-path="url(#clip1_16_151650)">
<path fill-rule="evenodd" clip-rule="evenodd" d="M-11.25 0H56.25V45H-11.25V0Z" fill="#199D00"/>
<path fill-rule="evenodd" clip-rule="evenodd" d="M5.75683 12.7529C5.68652 13.8076 5.58105 15.6533 6.48633 15.8467C7.56738 15.9522 6.96973 14.0186 7.36523 13.667C7.43555 13.4912 7.56738 13.4912 7.57617 13.711V15.3545C7.57617 15.8818 7.92773 16.0401 8.1914 16.1455C8.47265 16.1279 8.66601 16.1455 8.77148 16.4092L8.91211 19.2481C8.91211 19.2481 9.5625 19.4414 9.59765 17.6572C9.62402 16.6026 9.38672 15.7324 9.52734 15.5303C9.52734 15.3281 9.79101 15.3193 9.9668 15.416C10.248 15.6094 10.3711 15.8555 10.8105 15.7676C11.4785 15.5742 11.8828 15.249 11.8916 14.7393C11.8784 14.2383 11.7742 13.7439 11.584 13.2803C11.6191 13.1924 11.4609 12.9551 11.4961 12.8672C11.6104 13.0606 11.7949 13.043 11.8301 12.8672C11.7158 12.4981 11.54 12.1377 11.2588 11.9883C11.0215 11.7774 10.6699 11.8125 10.5557 12.252C10.4854 12.7529 10.7314 13.3418 11.0918 13.834C11.1709 14.0186 11.2764 14.335 11.2324 14.6162C11.0391 14.7305 10.8457 14.6777 10.6787 14.5108C10.6787 14.5108 10.1514 14.1152 10.1514 14.0186C10.292 13.1221 10.1777 13.0166 10.0986 12.7617C10.0459 12.419 9.87891 12.3047 9.74707 12.0762C9.61523 11.9356 9.43945 11.9356 9.35156 12.0762C9.11426 12.4805 9.22851 13.3506 9.39551 13.7461C9.51855 14.1065 9.70312 14.335 9.61523 14.335C9.54492 14.5371 9.39551 14.4844 9.28125 14.2471C9.15263 13.7477 9.09057 13.2335 9.09668 12.7178C9.05273 12.3135 9 11.4522 8.72754 11.2236C8.56933 11.0127 8.33203 11.1182 8.24414 11.3115C8.22093 11.7042 8.22975 12.0981 8.27051 12.4893C8.44629 13.1397 8.50781 13.7197 8.5957 14.3789C8.62207 15.2666 8.08594 14.7656 8.1123 14.3174C8.2276 13.7539 8.21861 13.172 8.08594 12.6123C7.99805 12.3838 7.90137 12.3311 7.68164 12.3662C7.51465 12.3662 7.08398 12.832 6.96094 13.6231C6.96094 13.6231 6.85547 14.0274 6.81152 14.3877C6.75 14.792 6.48633 15.0908 6.29297 14.335C6.13476 13.7813 6.0293 12.4365 5.76562 12.7529H5.75683Z" fill="white"/>
<path fill-rule="evenodd" clip-rule="evenodd" d="M8.70117 17.0684L5.88867 18.4219C5.91504 17.7803 7.21582 16.6289 8.11231 16.6201C8.68359 16.6289 8.54297 16.8398 8.69238 17.0684H8.70117Z" fill="white"/>
<path fill-rule="evenodd" clip-rule="evenodd" d="M8.2002 17.9472C6.72364 21.7705 11.6719 22.3066 12.2256 18.1054C12.2783 17.9297 12.4893 17.7627 12.5244 18.0439C12.4102 21.8496 8.69239 22.1045 8.05958 20.9092C7.91071 20.4979 7.8363 20.0633 7.83985 19.6259C7.75196 18.8789 7.35645 19.1689 7.29493 19.9072C7.2334 20.3203 7.25098 20.4345 7.25098 20.8301C7.44434 23.8359 12.2344 22.5439 13.0166 20.0654C13.4297 18.6943 12.9463 17.6836 13.166 17.6836C13.6406 18.1933 14.3086 17.7539 14.458 17.5781C14.5195 17.4902 14.6777 17.4287 14.7832 17.5429C15.1523 17.8066 15.8027 17.6836 15.9434 17.2177C16.0225 16.7519 16.084 16.2773 16.1016 15.7939C15.794 15.8818 15.5742 15.9433 15.5479 16.0752L15.4863 16.4795C15.46 16.6113 15.2051 16.6113 15.1875 16.4443C15.0732 15.917 14.5986 15.8554 14.3086 16.664C14.124 16.8222 13.7725 16.8574 13.7373 16.6201C13.7813 16.0752 13.5615 16.0049 13.1221 16.2597L12.7002 13.0781C12.876 13.0781 13.0518 13.2099 13.2188 12.999C13.043 12.4277 12.6475 11.2676 12.4277 11.1797C12.3311 11.0566 12.2432 11.1357 12.1025 11.1709C11.874 11.2412 11.6631 11.4345 11.7334 11.8213C11.9971 13.4736 12.1729 14.7304 12.4453 16.3916C12.4893 16.5761 12.3311 16.831 12.1201 16.8047C11.7686 16.5674 11.6807 16.084 11.0654 16.1015C10.626 16.1015 10.1338 16.5849 10.0723 17.042C9.99317 17.4111 9.9668 17.8066 10.0723 18.123C10.3799 18.4922 10.749 18.457 11.0742 18.3779C11.3379 18.2636 11.5576 18 11.6543 18.0615C11.7158 18.1406 11.6631 19.0195 10.3975 19.6875C9.63282 20.039 9.01758 20.1093 8.69239 19.4853C8.49024 19.0898 8.70997 17.6045 8.2002 17.9472Z" fill="white"/>
<path fill-rule="evenodd" clip-rule="evenodd" d="M14.502 14.0625C14.792 13.957 16.1983 12.3399 16.1983 12.3399L15.9873 12.1641C15.9082 12.1026 15.917 12.0322 15.9873 11.9707C16.3389 11.7598 16.2246 11.3203 16.0488 11.1094C15.9295 11.0512 15.7982 11.0217 15.6655 11.0232C15.5327 11.0248 15.4022 11.0573 15.2842 11.1182C15.0381 11.3555 14.9854 11.7334 15.1787 11.9619C15.3633 12.0498 15.5479 12.2432 15.4248 12.3486C14.8447 12.9639 13.2715 14.0274 13.4561 14.0625C13.4912 14.1152 14.4668 14.1152 14.4932 14.0625H14.502ZM5.97657 19.7754C5.44923 20.6192 5.40529 21.876 5.69532 22.2539C5.85353 22.4297 6.10841 22.5088 6.29298 22.4473C6.62697 22.3067 6.77638 21.6299 6.69728 21.3926C6.58302 21.2168 6.49513 21.1904 6.38087 21.3311C6.15236 21.8057 6.05568 21.4805 6.02931 21.2168C6.00412 20.7703 6.02769 20.3223 6.09962 19.8809C6.16115 19.5117 6.09962 19.6172 5.97657 19.7754ZM28.5733 18.4307C28.0635 17.3233 27.3516 16.2334 27.1318 15.8203C26.4469 14.7376 25.7198 13.6821 24.9522 12.6563C24.4072 12.0059 25.8486 12.9287 24.7764 11.6279L23.9942 10.9688C23.8184 10.8457 23.3965 10.6172 23.3262 10.9863C23.291 11.3203 23.3086 11.4961 23.3613 11.7686C23.4053 11.9443 23.669 12.252 23.8008 12.4277C25.6027 14.8144 27.1853 17.3589 28.5293 20.0303C28.7578 19.916 28.7051 18.6152 28.5733 18.4307Z" fill="white"/>
<path fill-rule="evenodd" clip-rule="evenodd" d="M26.332 22.1045C26.2265 22.2187 26.5781 22.7021 27.0351 22.7021C27.791 22.6142 28.459 22.1924 29.0742 21.0674C29.3242 20.6931 29.4837 20.2658 29.54 19.8193C29.6145 17.6857 29.4434 15.5506 29.0302 13.456C29.0039 13.2803 29.0302 13.0693 29.0478 13.0166C29.1006 12.9551 29.2676 13.0166 29.3554 12.8672C29.4873 12.7353 29.0039 11.6367 28.7402 11.2236C28.6523 11.0303 28.6084 10.9072 28.4502 11.2412C28.2593 11.6097 28.1683 12.0219 28.1865 12.4365C28.5468 14.9414 28.6611 17.1299 28.8896 19.6347C28.916 19.8808 28.8808 20.2324 28.7138 20.373C28.0506 21.1114 27.239 21.7014 26.332 22.1045ZM36.5713 22.0957C36.0263 22.4121 36.0263 22.7724 36.4658 22.7812C37.2217 22.6933 38.1181 22.6318 38.7334 21.7002C38.9507 21.2614 39.0763 20.7829 39.1025 20.2939C39.2132 18.1932 39.0745 16.0867 38.6894 14.0185C38.6718 13.8428 38.5927 13.4297 38.6191 13.3769C38.6718 13.2539 38.9179 13.3857 39.0058 13.2451C39.1289 13.1133 38.3642 12.1289 38.0918 11.707C38.0039 11.5137 37.9687 11.3906 37.8017 11.7246C37.6247 12.0965 37.5694 12.5147 37.6435 12.9199C38.0478 15.6445 38.3467 17.6836 38.4082 20.0918C38.373 20.3203 38.3642 20.4433 38.2588 20.7334C38.0215 21.0322 37.7578 21.4189 37.5117 21.6035C37.2656 21.7793 36.7383 21.9551 36.5713 22.0957Z" fill="white"/>
<path fill-rule="evenodd" clip-rule="evenodd" d="M36.9756 19.6611C36.9756 19.0195 36.9844 18.4746 36.9668 17.9912C36.9611 17.5818 36.8714 17.178 36.7032 16.8047C36.5449 16.4443 36.6416 16.1543 36.5625 15.7676C36.4922 15.3809 36.5098 14.8008 36.4043 14.3526C36.3692 14.1768 36.2813 13.6055 36.3076 13.544C36.3516 13.4209 36.5186 13.544 36.6065 13.4033C36.7295 13.2715 36.167 11.8213 35.8858 11.4082C35.7891 11.2236 35.5957 11.2852 35.376 11.584C35.1563 11.7861 35.2354 12.2344 35.3233 12.6651C35.8594 15.5039 36.2725 18.0791 36.1846 20.7774C36.1494 21.0059 36.9756 20.0918 36.9756 19.6611ZM32.959 16.1455C32.6162 16.1279 31.9043 15.4688 31.6934 15.0908C31.6589 14.9985 31.6441 14.8999 31.6502 14.8014C31.6563 14.703 31.683 14.607 31.7285 14.5195C31.8604 14.4317 32.0537 14.3438 32.2032 14.4317C32.2032 14.4317 32.3526 14.6426 32.3262 14.669C32.502 14.7568 32.5899 14.7129 32.6074 14.6338C32.6162 14.502 32.5547 14.4229 32.5547 14.2822C32.6338 13.8779 33.0821 13.8164 33.2578 14.0713C33.3809 14.2295 33.4336 14.5547 33.4424 14.7744C33.4424 14.8887 33.2666 14.7568 33.1524 14.7744C33.0557 14.8096 33.0293 14.9326 33.0205 15.0381C33.003 15.3281 32.9678 15.794 32.959 16.1367V16.1455ZM26.6485 20.3643C26.7364 19.5029 26.6133 17.9649 26.6045 17.4551C26.5575 16.1441 26.449 14.836 26.2793 13.5352C26.1739 12.7969 26.5782 13.6143 26.5254 13.1836C26.3936 12.4541 25.9893 11.9531 25.5059 11.294C25.3565 11.0742 25.3565 11.0303 25.1192 11.3467C24.8555 11.9356 25.084 12.3486 25.1543 12.8145C25.4971 14.3262 25.6992 15.7149 25.7959 17.0947C25.8971 18.5282 25.9089 19.9665 25.8311 21.4014C26.0948 21.4102 26.4991 20.9883 26.6485 20.3643Z" fill="white"/>
<path fill-rule="evenodd" clip-rule="evenodd" d="M38.1445 18.9844C37.5381 17.9649 36.6328 16.875 36.3867 16.4619C35.5717 15.3238 34.7157 14.2157 33.8203 13.1397C33.0732 12.3487 34.1718 13.0078 33.6797 12.3926C33.2666 11.9444 33.1523 11.795 32.792 11.5225C32.6162 11.4082 32.5107 11.1885 32.4404 11.5664C32.4124 11.8938 32.4065 12.2227 32.4228 12.5508C32.4228 12.7002 32.581 12.9903 32.7216 13.166C34.541 15.4073 36.5361 17.6924 38.1357 20.5664C38.3642 20.4522 38.2851 19.1602 38.1357 18.9844H38.1445Z" fill="white"/>
<path fill-rule="evenodd" clip-rule="evenodd" d="M10.7754 17.1123C10.7314 17.1914 10.6347 17.2881 10.6699 17.3848C10.7314 17.4727 10.7929 17.499 10.8984 17.499C10.9951 17.499 11.1357 17.5254 11.1621 17.4727C11.2148 17.4112 11.25 17.2969 11.2148 17.1826C11.1094 16.919 10.8281 17.0244 10.7754 17.1123Z" fill="#1BA400"/>
<path fill-rule="evenodd" clip-rule="evenodd" d="M31.1309 31.8604C31.9395 31.8955 32.4668 31.9043 33.1787 31.9834L34.0225 31.8955C34.9541 31.8076 34.9893 33.2227 34.9893 33.2227C34.9893 34.0576 34.6641 34.1016 34.251 34.1895C34.0137 34.2246 33.8994 34.0488 33.7676 33.8731C33.5688 33.9368 33.3571 33.9489 33.1523 33.9082C32.8096 33.8906 32.4756 33.8906 32.1416 33.8643C31.79 33.8379 31.5967 33.9082 31.2363 33.8731C31.166 33.9873 31.0605 34.1455 30.8496 34.1016C30.6738 34.0752 30.4541 33.5742 30.5156 33.1787C30.6475 32.8975 30.6035 32.9941 30.6035 32.8711C27.2988 32.7832 23.9678 32.6338 20.7334 32.6777C18.2021 32.6865 15.7061 32.792 13.2012 32.8975C11.8652 32.8799 10.8457 32.669 10.1426 31.6406C10.2129 31.6406 13.5527 31.8252 14.5283 31.7637C16.3301 31.7461 17.9824 31.5967 19.8193 31.544C23.4404 31.6055 27.0352 31.6055 30.6562 31.8604C30.3047 31.6231 30.3047 31.0693 30.832 30.9287C30.876 30.8936 30.9023 31.2012 30.9814 31.1924C31.4121 31.166 31.2188 31.7461 31.1309 31.8604ZM16.5762 11.8916C16.0312 13.4561 16.8926 15.1787 17.4902 15.0117C17.9297 15.1875 18.1934 14.3613 18.3691 13.4648C18.501 13.21 18.5889 13.1836 18.6504 13.3154C18.6328 14.5107 18.7383 14.7832 19.0459 15.1436C19.7314 15.6709 20.3027 15.2139 20.3467 15.1699L20.874 14.6338C20.9971 14.502 21.1553 14.502 21.3223 14.6074C21.4893 14.7568 21.4629 15.0117 21.8145 15.1875C22.1133 15.3106 22.7373 15.2227 22.8867 14.9678C23.0801 14.625 23.1328 14.5107 23.2207 14.3877C23.3613 14.2031 23.5986 14.2822 23.5986 14.3438C23.5723 14.4492 23.4316 14.5459 23.5283 14.7393C23.7041 14.8623 23.7393 14.7832 23.8359 14.7568C24.1875 14.5811 24.4512 13.8252 24.4512 13.8252C24.46 13.544 24.3018 13.5615 24.1963 13.6318L23.9238 13.8164C23.748 13.8428 23.4229 13.957 23.2559 13.7022C23.0889 13.4033 23.0889 12.9727 22.9658 12.665C22.9658 12.6475 22.7373 12.1816 22.9482 12.1553C23.0537 12.1729 23.2734 12.2344 23.3086 12.0498C23.4141 11.8652 23.0801 11.3467 22.8428 11.083C22.6406 10.8633 22.3594 10.8369 22.0869 11.0654C21.8936 11.2412 21.9199 11.4346 21.8848 11.6191C21.8514 11.7514 21.85 11.8897 21.8805 12.0226C21.9111 12.1556 21.9728 12.2794 22.0605 12.3838C22.2539 12.7529 22.5967 13.2363 22.4824 13.9219C22.4824 13.9219 22.2803 14.2383 21.9287 14.1943C21.7793 14.168 21.542 14.1065 21.4189 13.1572C21.3223 12.4541 21.4365 11.4522 21.1377 10.9863C21.0234 10.6963 20.9443 10.4238 20.6807 10.9072C20.6104 11.1006 20.3027 11.3906 20.5225 11.9795C20.7304 12.5101 20.7911 13.0871 20.6982 13.6494C20.5664 13.8428 20.54 13.9043 20.373 14.0889C20.1445 14.3525 19.8896 14.2822 19.6963 14.1856C19.5205 14.0713 19.3799 14.0098 19.292 13.6143C19.3096 12.999 19.3447 11.9883 19.2305 11.7773C19.0635 11.4434 18.791 11.5664 18.6768 11.6719C18.1539 12.2527 17.8038 12.9681 17.666 13.7373C17.5078 14.2471 17.3408 14.0977 17.2266 13.8955C16.9453 13.6318 16.9189 11.5488 16.5762 11.8916Z" fill="white"/>
<path fill-rule="evenodd" clip-rule="evenodd" d="M18.2285 15.3018C18.4834 15.126 18.3691 15.003 18.7383 15.3721C19.2147 16.2151 19.4914 17.1563 19.5469 18.1231C19.5293 18.3516 19.6875 18.4922 19.7666 18.4395C19.8017 17.9121 21.0937 17.1739 22.2803 17.0684C22.456 17.0244 22.3681 16.6817 22.3945 16.5059C22.3242 15.8467 22.7637 15.249 23.3789 15.2051C24.2226 15.3281 24.5039 15.7764 24.5215 16.4531C24.4248 17.7715 23.0537 17.9912 22.289 18.0967C22.1748 18.1406 22.1221 18.1934 22.289 18.2549L25.5058 18.2725L25.6728 18.3604C25.6904 18.4483 25.6201 18.378 25.497 18.5889C25.3201 18.8998 25.2094 19.2439 25.1719 19.5996C24.2138 19.916 23.2207 20.0391 22.2187 20.1709C21.8672 20.3467 21.6914 20.584 21.7617 20.8477C21.8847 21.1377 22.6582 21.4365 22.6582 21.4453C22.8076 21.5332 22.9746 21.753 22.6142 22.2012C21.0498 22.1309 19.8281 21.4629 19.4062 20.5225C19.2832 20.4258 19.1426 20.5225 19.0547 20.6455C18.4394 21.4365 17.8418 22.1397 16.7959 22.5264C16.1806 22.6846 15.539 22.4297 15.2402 22.0254C15.0381 21.7881 15.0469 21.5332 14.9765 21.4805C14.6338 21.6299 11.7334 22.8604 12.1025 22.2803C12.8056 21.5332 14.0361 20.9707 15.1084 20.2324C15.1875 19.9776 15.3281 19.1338 15.75 18.8614C15.7763 18.8614 15.6885 19.3535 15.6972 19.5645C15.6972 19.7403 15.6797 19.8018 15.7148 19.7578C15.7939 19.7139 17.0947 18.6856 17.209 18.3692C17.332 18.1934 17.2353 17.7364 17.2353 17.7188C16.9892 17.086 16.6465 17.0332 16.5234 16.7168C16.4092 16.3037 16.4619 15.8291 16.6992 15.6885C16.9101 15.5039 17.1562 15.5215 17.3935 15.7324C17.6572 15.9698 17.8857 16.4356 17.956 16.7783C17.9121 16.9102 17.6045 16.6905 17.5166 16.752C17.6857 16.9464 17.7982 17.1835 17.8418 17.4375C18.0176 18.1582 17.9648 18.4395 17.789 18.9053C17.209 20.127 16.4707 20.4873 15.8203 20.9444C15.8027 20.9444 15.7939 21.252 16.0312 21.419C16.1191 21.5069 16.4619 21.5508 16.8574 21.419C17.7024 20.9497 18.3856 20.2358 18.8174 19.3711C18.892 18.7131 18.82 18.0468 18.6064 17.4199C18.3515 16.8311 18.0527 15.9961 18.0527 15.9785C18.0439 15.6094 18.0703 15.4864 18.2285 15.3018ZM9.80857 11.9092C10.1777 12.085 10.8808 12.0059 10.8457 11.4082L10.8281 11.1358C10.7578 10.96 10.5469 11.0039 10.5029 11.1797C10.4853 11.2412 10.5293 11.3379 10.4765 11.3643C10.4414 11.3994 10.3271 11.3819 10.3271 11.2149C10.3271 11.1621 10.292 11.1094 10.2656 11.0742C10.248 11.0567 10.2304 11.0567 10.1865 11.0567C10.1338 11.0567 10.1338 11.0655 10.1074 11.1094C10.0986 11.1533 10.081 11.1973 10.081 11.25C10.081 11.3115 10.0459 11.3291 10.0107 11.3379C9.95799 11.3379 9.96678 11.3379 9.92283 11.3203C9.90525 11.294 9.87889 11.2852 9.87889 11.2324L9.85252 11.0918C9.83494 11.0655 9.79979 11.0479 9.76463 11.0391C9.56248 11.0391 9.5449 11.2764 9.56248 11.3643C9.5449 11.3819 9.53611 11.7949 9.80857 11.9092Z" fill="white"/>
<path fill-rule="evenodd" clip-rule="evenodd" d="M20.6631 16.4971C21.0322 16.6728 21.9199 16.5762 21.7002 16.0049L21.6826 15.7236C21.6035 15.5478 21.4014 15.5918 21.3574 15.7764C21.3399 15.8291 21.3838 15.9258 21.3223 15.9521C21.2959 15.9873 21.1729 15.9697 21.1816 15.8115C21.1816 15.7588 21.1465 15.6973 21.1201 15.6621C21.0938 15.6533 21.085 15.6445 21.0322 15.6445C20.9883 15.6445 20.9883 15.6621 20.9619 15.706C20.9443 15.75 20.9356 15.7939 20.9356 15.8467C20.9268 15.8994 20.9004 15.917 20.8565 15.9346C20.8125 15.9346 20.8213 15.9346 20.7861 15.9082C20.7598 15.8818 20.7334 15.873 20.7334 15.8291L20.707 15.6885C20.6895 15.6621 20.6543 15.6445 20.6191 15.6357C20.417 15.6357 20.3994 15.8642 20.4082 15.9521C20.3994 15.9697 20.3906 16.3916 20.6719 16.4971H20.6631ZM26.9912 14.5986C27.3604 14.7744 28.0547 14.6953 28.0283 14.1064L28.0108 13.8252C27.9317 13.6494 27.7295 13.6933 27.6856 13.8691C27.668 13.9307 27.7119 14.0273 27.6504 14.0625C27.624 14.0889 27.501 14.0713 27.5098 13.9043C27.5098 13.8515 27.4746 13.7988 27.4482 13.7637C27.4219 13.7461 27.4131 13.7461 27.3604 13.7461C27.3164 13.7461 27.3164 13.7637 27.29 13.8076L27.2637 13.9394C27.2549 14.001 27.2285 14.0273 27.1846 14.0273C27.1406 14.0273 27.1494 14.0273 27.1143 14.0098C27.0879 13.9834 27.0615 13.9746 27.0615 13.9307C27.0615 13.8867 27.0527 13.8164 27.0352 13.7812C27.0176 13.7549 26.9824 13.7461 26.9473 13.7373C26.7451 13.7373 26.7275 13.9658 26.7363 14.0537C26.7275 14.0713 26.7188 14.4844 27 14.5986H26.9912ZM30.2695 19.3711C29.6279 20.1006 29.9092 21.3047 30.0586 21.5683C30.2695 21.9902 30.4365 22.2627 30.8496 22.4736C31.2275 22.7461 31.5264 22.5791 31.6846 22.3857C32.0625 21.9902 32.0713 20.9795 32.2471 20.7861C32.3701 20.417 32.6865 20.4785 32.8359 20.6455C32.9757 20.8439 33.1631 21.0041 33.3809 21.1113C33.7324 21.4189 34.1543 21.4805 34.5762 21.1992C34.8574 21.0322 35.042 20.8301 35.209 20.417C35.3848 19.9248 35.2969 17.6396 35.2529 16.2861L34.8838 14.3965C34.8838 14.3789 34.8399 13.5 34.7959 13.2978C34.7959 13.2099 34.7695 13.1836 34.8574 13.1924C34.9541 13.2803 34.9629 13.2803 35.0332 13.3066C35.1211 13.3242 35.209 13.1572 35.1475 13.0166L34.2686 11.3818C34.1982 11.3115 34.1016 11.2412 33.9873 11.3994C33.9199 11.4604 33.8662 11.5351 33.8299 11.6184C33.7935 11.7018 33.7753 11.7919 33.7764 11.8828C33.8027 12.2695 33.8643 12.665 33.8906 13.0517L34.2422 15.0381C34.3565 16.4443 34.3828 17.6045 34.4971 19.0195C34.4795 19.6172 34.2949 20.1357 34.1192 20.2148C34.1192 20.2148 33.8555 20.3642 33.6797 20.1973C33.5479 20.1445 33.0293 19.3271 33.0293 19.3271C32.7656 19.0898 32.5899 19.1514 32.4053 19.3271C31.8779 19.8369 31.6494 20.7685 31.2891 21.4189C31.2012 21.5683 30.9375 21.6826 30.6563 21.4101C29.9356 20.417 30.3574 19.0107 30.2695 19.3711ZM27.1582 11.1357C27.4922 11.2676 27.7207 11.9443 27.6504 12.2783C27.5801 12.6738 27.4043 13.1133 27.2813 13.0605C27.1406 13.0078 27.3691 12.6562 27.2373 12.2871C27.167 12.041 26.71 11.6015 26.7627 11.4785C26.6748 11.206 26.9561 11.083 27.1582 11.1269V11.1357Z" fill="white"/>
<path fill-rule="evenodd" clip-rule="evenodd" d="M31.3418 19.7754C31.4033 18.9668 31.289 18.4746 31.2715 18C31.2539 17.5254 30.7353 13.9043 30.6299 13.5528C30.498 12.8672 31.1308 13.4649 31.0605 13.0606C30.8408 12.5684 30.3047 11.8389 30.1377 11.4082C30.0322 11.2324 30.0762 11.0567 29.8476 11.3643C29.6509 11.9036 29.5817 12.4812 29.6455 13.0518C30.1904 15.8906 30.7441 18.2461 30.6562 20.9444C30.9199 20.9444 31.2099 20.3555 31.3418 19.7754ZM37.0019 12.2783C37.3096 12.4278 37.4853 13.2715 37.4502 13.5088C37.3887 13.9483 37.2304 14.4229 37.1162 14.3614C36.9844 14.3086 37.1426 13.711 37.081 13.5264C37.0107 13.2627 36.5976 12.7881 36.6416 12.6475C36.5537 12.3487 36.8174 12.2256 37.0019 12.2783ZM14.5283 18.2461C14.8183 18.3604 14.9941 18.9756 14.9678 19.1514C14.8974 19.4766 14.748 19.8281 14.6338 19.7754C14.5195 19.7403 14.6601 19.3008 14.6074 19.1602C14.581 18.835 14.1767 18.6592 14.1855 18.5186C14.1152 18.2549 14.3613 18.211 14.5371 18.2461H14.5283Z" fill="white"/>
<path fill-rule="evenodd" clip-rule="evenodd" d="M21.5244 19.1777C21.8936 19.1953 22.0781 19.4941 21.7354 19.6172C21.3838 19.7314 21.0586 19.8281 21.0498 20.3203C21.1816 21.0234 20.874 20.7773 20.6982 20.6895C20.4873 20.5312 19.8896 20.1621 19.8018 19.3711C19.793 19.1865 19.9424 19.0195 20.1797 19.0195C20.5313 19.1162 21.0586 19.125 21.5244 19.1777Z" fill="#1B9D00"/>
<path fill-rule="evenodd" clip-rule="evenodd" d="M6.80275 10.9336C7.22462 11.0566 7.25099 11.6895 7.22462 11.874C7.1631 12.208 7.01368 12.5684 6.90822 12.5244C6.78517 12.4805 6.90822 12.0234 6.84669 11.8828C6.78517 11.6895 6.42482 11.3203 6.45997 11.2148C6.38087 10.9951 6.63576 10.8897 6.80275 10.9336ZM15.2315 13.8867C14.8975 14.0625 14.7744 14.5898 14.9766 14.9063C15.1699 15.1699 15.4688 15.0732 15.5039 15.0732C15.8291 15.1084 16.0225 14.4668 16.0225 14.4668C16.0225 14.4668 16.0313 14.291 15.6533 14.6338C15.4863 14.6602 15.4776 14.5986 15.4336 14.5107C15.3934 14.3434 15.4088 14.1675 15.4776 14.0098C15.5391 13.8516 15.416 13.7813 15.2315 13.8867ZM17.6924 10.6875C17.5166 10.8018 17.1914 11.1445 17.1826 11.5313C17.1738 11.751 17.1299 11.751 17.2705 11.8828C17.3848 12.041 17.4815 12.0322 17.6924 11.918C17.745 11.8849 17.7901 11.8412 17.8249 11.7898C17.8597 11.7384 17.8834 11.6802 17.8945 11.6191C17.9473 11.373 17.6309 11.7422 17.5957 11.4609C17.5254 11.1973 17.7276 11.0918 17.9209 10.8457C17.9209 10.6699 17.9209 10.5557 17.6836 10.6875H17.6924ZM19.6611 11.0391C19.5837 11.3591 19.5366 11.6858 19.5205 12.0147C19.4678 12.2607 19.7842 12.3662 19.916 12.0498C20.127 11.4785 20.127 11.2324 20.1445 10.9951C20.083 10.6172 19.8281 10.626 19.6611 11.0391ZM32.1416 17.3936C32.1768 17.3496 33.8994 16.1279 33.8994 16.1279C34.0752 16.0664 34.0313 16.7607 33.9522 16.752C33.4179 17.2668 32.8034 17.6913 32.1328 18.0088C32.0449 18.0703 31.9658 17.543 32.1328 17.3936H32.1416ZM33.6973 17.376C34.0049 17.5254 34.1279 18.4131 34.0928 18.6504C34.0928 19.125 33.8027 19.4941 33.6797 19.4414C33.5567 19.3799 33.6973 18.8525 33.6358 18.668C33.5654 18.4043 33.3106 17.9209 33.3545 17.7803C33.2666 17.4814 33.5127 17.3232 33.7061 17.376H33.6973ZM23.502 21.1904C23.6445 21.024 23.8103 20.879 23.9942 20.7598C24.1699 20.6719 24.3281 20.8301 24.3194 20.8213C24.3457 20.9971 24.2139 21.1465 24.2578 21.375C24.293 21.4629 24.3194 21.5684 24.4863 21.5332C24.7588 21.3135 25.0137 21.2959 25.2774 21.2871C25.4971 21.2959 25.5059 21.6563 25.3652 21.6563C24.8643 21.7617 24.6445 21.9023 24.2842 22.0342C24.1084 22.1397 23.9678 22.0078 23.9678 21.999C23.9678 21.9902 23.8711 21.9023 23.9326 21.6738C23.9502 21.4981 23.8799 21.3926 23.7217 21.4102C23.6162 21.4805 23.5108 21.5156 23.458 21.3838C23.4317 21.2959 23.4229 21.2432 23.502 21.1904ZM35.5078 21.665C35.5781 21.7529 35.6309 21.8408 35.499 21.999L35.1738 22.2803C35.1211 22.3682 35.0859 22.5264 35.2617 22.5703C35.5781 22.6582 36.3164 22.1748 36.3164 22.166C36.4395 22.0781 36.4043 21.9023 36.3867 21.9023C36.3164 21.8232 36.1582 21.876 36.0527 21.8584C36 21.8584 35.833 21.8408 35.9121 21.6826C35.9712 21.605 36.0185 21.5191 36.0527 21.4277C36.0967 21.3223 36.0527 21.252 35.877 21.1904C35.6924 21.1553 35.6133 21.1729 35.4111 21.1904C35.3057 21.208 35.2705 21.2607 35.2442 21.3926C35.2529 21.5947 35.376 21.5859 35.5078 21.6563V21.665Z" fill="white"/>
<path fill-rule="evenodd" clip-rule="evenodd" d="M23.5635 16.6729C23.5196 16.7608 23.3613 16.7608 23.2119 16.6729C23.0625 16.585 22.9746 16.4443 23.0274 16.3652C23.0801 16.2861 23.2295 16.2861 23.3789 16.3652C23.5283 16.4443 23.6074 16.5938 23.5635 16.6729ZM15.7412 11.9619C15.6533 11.9883 15.5303 11.9092 15.4776 11.7861C15.4248 11.6631 15.4512 11.5576 15.5391 11.5313C15.627 11.5049 15.7412 11.5928 15.8028 11.707C15.8643 11.8213 15.8291 11.9443 15.7324 11.9707L15.7412 11.9619Z" fill="#259F00"/>
<path fill-rule="evenodd" clip-rule="evenodd" d="M31.2187 32.959C32.0449 32.9941 32.8183 32.959 33.6357 33.0029C33.7851 33.1348 33.6797 33.4424 33.583 33.4248L32.8974 33.3984C32.8886 33.1348 32.2207 33.1787 32.2383 33.4072C31.8779 33.4512 31.5527 33.3984 31.1836 33.3809C31.0781 33.249 31.0957 33.0117 31.2187 32.959Z" fill="#209000"/>
</g>
</g>
<defs>
<clipPath id="clip0_16_151650">
<rect width="45" height="45" rx="22.5" fill="white"/>
</clipPath>
<clipPath id="clip1_16_151650">
<rect width="60" height="45" fill="white" transform="translate(-7.5)"/>
</clipPath>
</defs>
</svg>
