<svg width="16" height="16" viewBox="0 0 16 16" fill="none" xmlns="http://www.w3.org/2000/svg">
<path d="M7.452 13.046C7.51316 13.1348 7.595 13.2075 7.69046 13.2576C7.78592 13.3078 7.89215 13.334 8 13.334C8.10785 13.334 8.21408 13.3078 8.30954 13.2576C8.405 13.2075 8.48684 13.1348 8.548 13.046L14.548 4.37933C14.6175 4.27937 14.6582 4.16229 14.6658 4.0408C14.6733 3.91932 14.6475 3.79808 14.591 3.69026C14.5345 3.58244 14.4495 3.49216 14.3454 3.42924C14.2412 3.36631 14.1217 3.33314 14 3.33333H2C1.87856 3.33383 1.75956 3.36743 1.65579 3.43051C1.55202 3.49359 1.4674 3.58376 1.41105 3.69133C1.35469 3.7989 1.32872 3.9198 1.33594 4.04102C1.34316 4.16224 1.38328 4.27921 1.452 4.37933L7.452 13.046Z" fill="white"/>
</svg>
